<svg width="40" height="40" viewBox="0 0 40 40" fill="none" xmlns="http://www.w3.org/2000/svg">
<path d="M20 0C21.428 0 22.838 0.15 24.212 0.444C24.4756 0.50045 24.7192 0.62691 24.917 0.810076C25.1148 0.993242 25.2596 1.22634 25.3362 1.48485C25.4127 1.74336 25.4182 2.01772 25.352 2.27908C25.2858 2.54043 25.1504 2.77911 24.96 2.97C24.331 3.60158 23.8821 4.38977 23.66 5.25302C23.4378 6.11627 23.4503 7.02322 23.6963 7.88C23.9422 8.73677 24.4127 9.51226 25.0589 10.1262C25.7052 10.7402 26.5037 11.1703 27.372 11.372C27.7294 11.4545 28.0442 11.6651 28.2568 11.964C28.4695 12.2629 28.5652 12.6293 28.526 12.994C28.4194 14.0467 28.6495 15.1061 29.1832 16.0197C29.7169 16.9333 30.5267 17.654 31.496 18.0782C32.4654 18.5024 33.5443 18.6082 34.5775 18.3803C35.6107 18.1524 36.5451 17.6026 37.246 16.81C37.4377 16.5929 37.6882 16.436 37.9672 16.3582C38.2462 16.2803 38.5418 16.285 38.8182 16.3715C39.0946 16.458 39.3401 16.6227 39.525 16.8456C39.7099 17.0686 39.8262 17.3403 39.86 17.628C39.954 18.408 40 19.202 40 20C40 31.046 31.046 40 20 40C8.954 40 0 31.046 0 20C0 8.954 8.954 0 20 0ZM26 28C25.4696 28 24.9609 28.2107 24.5858 28.5858C24.2107 28.9609 24 29.4696 24 30C24 30.5304 24.2107 31.0391 24.5858 31.4142C24.9609 31.7893 25.4696 32 26 32C26.5304 32 27.0391 31.7893 27.4142 31.4142C27.7893 31.0391 28 30.5304 28 30C28 29.4696 27.7893 28.9609 27.4142 28.5858C27.0391 28.2107 26.5304 28 26 28ZM12 26C11.4696 26 10.9609 26.2107 10.5858 26.5858C10.2107 26.9609 10 27.4696 10 28C10 28.5304 10.2107 29.0391 10.5858 29.4142C10.9609 29.7893 11.4696 30 12 30C12.5304 30 13.0391 29.7893 13.4142 29.4142C13.7893 29.0391 14 28.5304 14 28C14 27.4696 13.7893 26.9609 13.4142 26.5858C13.0391 26.2107 12.5304 26 12 26ZM20 18C19.4696 18 18.9609 18.2107 18.5858 18.5858C18.2107 18.9609 18 19.4696 18 20C18 20.5304 18.2107 21.0391 18.5858 21.4142C18.9609 21.7893 19.4696 22 20 22C20.5304 22 21.0391 21.7893 21.4142 21.4142C21.7893 21.0391 22 20.5304 22 20C22 19.4696 21.7893 18.9609 21.4142 18.5858C21.0391 18.2107 20.5304 18 20 18ZM10 12C9.46957 12 8.96086 12.2107 8.58579 12.5858C8.21071 12.9609 8 13.4696 8 14C8 14.5304 8.21071 15.0391 8.58579 15.4142C8.96086 15.7893 9.46957 16 10 16C10.5304 16 11.0391 15.7893 11.4142 15.4142C11.7893 15.0391 12 14.5304 12 14C12 13.4696 11.7893 12.9609 11.4142 12.5858C11.0391 12.2107 10.5304 12 10 12Z" fill="white"/>
</svg>
