<svg width="180" height="29" viewBox="0 0 180 29" fill="none" xmlns="http://www.w3.org/2000/svg">
<path d="M61.856 17.048C61.608 17.048 61.36 16.96 61.112 16.784C60.864 16.608 60.736 16.352 60.728 16.016L59.924 15.188L60.764 14.516H63.824C64.528 14.516 65.112 14.4 65.576 14.168C66.048 13.928 66.4 13.564 66.632 13.076C66.872 12.588 66.992 11.968 66.992 11.216C66.992 10.024 66.692 9.216 66.092 8.792C65.5 8.36 64.68 8.144 63.632 8.144H60.692L59.66 5.552C60.028 5.552 60.464 5.552 60.968 5.552C61.48 5.552 61.968 5.552 62.432 5.552C62.896 5.552 63.244 5.552 63.476 5.552C65.612 5.552 67.212 5.992 68.276 6.872C69.34 7.744 69.872 9.168 69.872 11.144C69.872 11.896 69.764 12.624 69.548 13.328C69.34 14.024 68.996 14.652 68.516 15.212C68.036 15.772 67.388 16.22 66.572 16.556C65.756 16.884 64.748 17.048 63.548 17.048H61.856ZM57.932 23V5.552H60.764V23H57.932ZM75.3489 23.144C74.5489 23.144 73.8409 22.996 73.2249 22.7C72.6089 22.396 72.1249 21.976 71.7729 21.44C71.4289 20.904 71.2569 20.284 71.2569 19.58C71.2569 18.804 71.3969 18.164 71.6769 17.66C71.9569 17.156 72.3609 16.756 72.8889 16.46C73.4249 16.156 74.0529 15.924 74.7729 15.764C75.2849 15.652 75.8249 15.56 76.3929 15.488C76.9689 15.416 77.5009 15.36 77.9889 15.32C78.4769 15.272 78.8529 15.24 79.1169 15.224V14.696C79.1169 13.808 78.9369 13.144 78.5769 12.704C78.2249 12.256 77.6249 12.032 76.7769 12.032C76.2329 12.032 75.7769 12.1 75.4089 12.236C75.0409 12.364 74.7609 12.612 74.5689 12.98C74.3849 13.34 74.2849 13.868 74.2689 14.564H71.6889C71.6009 13.436 71.7609 12.512 72.1689 11.792C72.5849 11.064 73.2009 10.528 74.0169 10.184C74.8409 9.832 75.8129 9.656 76.9329 9.656C77.5969 9.656 78.2209 9.732 78.8049 9.884C79.3969 10.028 79.9209 10.28 80.3769 10.64C80.8329 10.992 81.1929 11.476 81.4569 12.092C81.7209 12.708 81.8529 13.488 81.8529 14.432V23H79.0809L79.1169 20.06C78.9649 20.948 78.5809 21.684 77.9649 22.268C77.3489 22.852 76.4769 23.144 75.3489 23.144ZM76.1049 21.008C76.5209 21.008 76.9409 20.936 77.3649 20.792C77.7969 20.648 78.1729 20.44 78.4929 20.168C78.8209 19.896 79.0289 19.576 79.1169 19.208V16.808C78.7969 16.84 78.4169 16.896 77.9769 16.976C77.5449 17.056 77.1729 17.128 76.8609 17.192C75.9649 17.376 75.3169 17.62 74.9169 17.924C74.5249 18.22 74.3289 18.676 74.3289 19.292C74.3289 19.644 74.4089 19.952 74.5689 20.216C74.7369 20.472 74.9569 20.668 75.2289 20.804C75.5009 20.94 75.7929 21.008 76.1049 21.008ZM84.656 28.172V25.532H85.688C86.264 25.532 86.708 25.48 87.02 25.376C87.34 25.272 87.576 25.116 87.728 24.908C87.888 24.7 88.004 24.448 88.076 24.152C88.164 23.8 88.26 23.536 88.364 23.36C88.476 23.192 88.608 23.072 88.76 23H87.824L83.552 9.908H86.696L88.196 15.884L89.408 20.216H89.516L90.608 15.896L92.108 9.908H95.228L91.016 23C90.76 23.792 90.484 24.508 90.188 25.148C89.892 25.788 89.548 26.332 89.156 26.78C88.764 27.228 88.284 27.572 87.716 27.812C87.156 28.052 86.48 28.172 85.688 28.172H84.656ZM104.647 23.252C102.959 23.252 101.519 22.892 100.327 22.172C99.1345 21.444 98.2225 20.404 97.5905 19.052C96.9585 17.692 96.6425 16.072 96.6425 14.192C96.6425 12.352 96.9505 10.764 97.5665 9.428C98.1825 8.084 99.0865 7.048 100.279 6.32C101.479 5.592 102.947 5.228 104.683 5.228C105.939 5.228 107.071 5.468 108.079 5.948C109.095 6.428 109.899 7.132 110.491 8.06C111.083 8.98 111.375 10.108 111.367 11.444H107.467C107.459 10.812 107.319 10.304 107.047 9.92C106.775 9.536 106.407 9.26 105.943 9.092C105.487 8.916 104.971 8.828 104.395 8.828C103.611 8.828 102.931 9.02 102.355 9.404C101.779 9.788 101.331 10.384 101.011 11.192C100.699 11.992 100.543 13.02 100.543 14.276C100.543 15.5 100.703 16.512 101.023 17.312C101.351 18.104 101.803 18.692 102.379 19.076C102.963 19.46 103.639 19.652 104.407 19.652C105.063 19.652 105.619 19.564 106.075 19.388C106.531 19.204 106.879 18.944 107.119 18.608C107.367 18.264 107.491 17.848 107.491 17.36H111.403C111.411 18.56 111.115 19.604 110.515 20.492C109.915 21.372 109.103 22.052 108.079 22.532C107.055 23.012 105.911 23.252 104.647 23.252ZM119.223 23.18C117.895 23.18 116.763 22.916 115.827 22.388C114.891 21.86 114.175 21.096 113.679 20.096C113.183 19.088 112.935 17.872 112.935 16.448C112.935 14.976 113.199 13.736 113.727 12.728C114.255 11.712 114.999 10.944 115.959 10.424C116.919 9.904 118.043 9.644 119.331 9.644C120.579 9.644 121.627 9.88 122.475 10.352C123.331 10.824 123.979 11.52 124.419 12.44C124.859 13.36 125.079 14.492 125.079 15.836C125.079 16.004 125.071 16.2 125.055 16.424C125.047 16.64 125.035 16.888 125.019 17.168H116.595C116.683 18.256 116.947 19.052 117.387 19.556C117.827 20.052 118.443 20.3 119.235 20.3C119.891 20.3 120.387 20.156 120.723 19.868C121.067 19.58 121.271 19.2 121.335 18.728H124.911C124.839 19.632 124.563 20.42 124.083 21.092C123.611 21.756 122.963 22.272 122.139 22.64C121.315 23 120.343 23.18 119.223 23.18ZM118.119 15.068H121.491C121.459 14.228 121.255 13.6 120.879 13.184C120.511 12.768 119.943 12.56 119.175 12.56C118.271 12.56 117.611 12.884 117.195 13.532C116.779 14.172 116.567 15.084 116.559 16.268C116.623 15.812 116.779 15.5 117.027 15.332C117.275 15.156 117.639 15.068 118.119 15.068ZM127.357 23V9.896H130.693L131.005 14.84L130.861 13.844C130.957 13.124 131.145 12.444 131.425 11.804C131.705 11.156 132.121 10.632 132.673 10.232C133.233 9.832 133.973 9.632 134.893 9.632C136.085 9.632 137.041 10.02 137.761 10.796C138.489 11.564 138.853 12.74 138.853 14.324V23H135.121V15.716C135.121 14.884 135.049 14.252 134.905 13.82C134.761 13.38 134.557 13.08 134.293 12.92C134.029 12.76 133.717 12.68 133.357 12.68C132.845 12.68 132.393 12.844 132.001 13.172C131.609 13.492 131.309 13.872 131.101 14.312V23H127.357ZM145.476 23.156C144.396 23.156 143.552 22.884 142.944 22.34C142.344 21.788 142.044 20.936 142.044 19.784L142.008 13.928C142.008 13.624 142.092 13.376 142.26 13.184C142.436 12.992 142.68 12.868 142.992 12.812L142.008 10.424V10.028L142.692 6.152H145.728V18.632C145.728 19.192 145.796 19.58 145.932 19.796C146.076 20.012 146.348 20.12 146.748 20.12C147.148 20.12 147.48 20.112 147.744 20.096C148.016 20.08 148.272 20.052 148.512 20.012V22.952C148.224 23.056 147.792 23.116 147.216 23.132C146.648 23.148 146.068 23.156 145.476 23.156ZM140.616 12.812V9.896H148.428V12.812H140.616ZM150.514 23V9.896H153.85L154.162 15.032L153.946 14.252C154.018 13.564 154.15 12.94 154.342 12.38C154.534 11.812 154.782 11.324 155.086 10.916C155.39 10.508 155.754 10.192 156.178 9.968C156.61 9.744 157.102 9.632 157.654 9.632C157.814 9.632 157.974 9.64 158.134 9.656C158.302 9.672 158.45 9.7 158.578 9.74V13.616C158.306 13.544 158.042 13.496 157.786 13.472C157.538 13.44 157.29 13.424 157.042 13.424C156.602 13.424 156.202 13.464 155.842 13.544C155.49 13.624 155.182 13.748 154.918 13.916C154.654 14.076 154.434 14.284 154.258 14.54V23H150.514ZM163.856 23.144C163.112 23.144 162.436 23.004 161.828 22.724C161.228 22.444 160.752 22.032 160.4 21.488C160.048 20.944 159.872 20.276 159.872 19.484C159.872 18.692 160.032 18.04 160.352 17.528C160.68 17.016 161.124 16.616 161.684 16.328C162.244 16.032 162.876 15.812 163.58 15.668C164.052 15.572 164.536 15.492 165.032 15.428C165.536 15.364 166.008 15.312 166.448 15.272C166.896 15.232 167.276 15.2 167.588 15.176V14.816C167.588 13.984 167.448 13.4 167.168 13.064C166.896 12.728 166.416 12.56 165.728 12.56C165.288 12.56 164.916 12.62 164.612 12.74C164.316 12.86 164.092 13.076 163.94 13.388C163.796 13.7 163.728 14.144 163.736 14.72H160.208C160.112 13.568 160.292 12.62 160.748 11.876C161.204 11.124 161.872 10.568 162.752 10.208C163.632 9.84 164.664 9.656 165.848 9.656C166.536 9.656 167.204 9.732 167.852 9.884C168.5 10.028 169.08 10.28 169.592 10.64C170.104 10.992 170.508 11.476 170.804 12.092C171.108 12.708 171.26 13.488 171.26 14.432V23H167.564L167.588 19.94C167.444 20.82 167.084 21.576 166.508 22.208C165.94 22.832 165.056 23.144 163.856 23.144ZM165.092 20.672C165.484 20.672 165.856 20.6 166.208 20.456C166.568 20.304 166.872 20.1 167.12 19.844C167.368 19.58 167.524 19.288 167.588 18.968V16.904C167.268 16.952 166.944 17.004 166.616 17.06C166.288 17.116 166 17.176 165.752 17.24C164.952 17.416 164.404 17.66 164.108 17.972C163.812 18.276 163.664 18.676 163.664 19.172C163.664 19.484 163.716 19.752 163.82 19.976C163.932 20.2 164.096 20.372 164.312 20.492C164.528 20.612 164.788 20.672 165.092 20.672ZM174.198 23V4.256H177.942V23H174.198Z" fill="#E35669"/>
<rect width="40" height="28" fill="#E56678"/>
<path d="M22.95 16.695C22.82 16.295 22.445 16 22 16H21.5V14.5C21.5 14.3674 21.4473 14.2402 21.3536 14.1464C21.2598 14.0527 21.1326 14 21 14H18V13H19C19.1326 13 19.2598 12.9473 19.3536 12.8536C19.4473 12.7598 19.5 12.6326 19.5 12.5V11.5H20.5C20.7652 11.5 21.0196 11.3946 21.2071 11.2071C21.3946 11.0196 21.5 10.7652 21.5 10.5V10.295C22.0982 10.5362 22.6291 10.9187 23.0472 11.4099C23.4653 11.9011 23.7581 12.4863 23.9007 13.1154C24.0432 13.7444 24.0312 14.3987 23.8656 15.0221C23.7 15.6455 23.3859 16.2195 22.95 16.695ZM19.5 17.965C17.525 17.72 16 16.04 16 14C16 13.69 16.04 13.39 16.105 13.105L18.5 15.5V16C18.5 16.2652 18.6054 16.5196 18.7929 16.7071C18.9804 16.8946 19.2348 17 19.5 17M20 9C19.3434 9 18.6932 9.12933 18.0866 9.3806C17.48 9.63188 16.9288 10.0002 16.4645 10.4645C15.5268 11.4021 15 12.6739 15 14C15 15.3261 15.5268 16.5979 16.4645 17.5355C16.9288 17.9998 17.48 18.3681 18.0866 18.6194C18.6932 18.8707 19.3434 19 20 19C21.3261 19 22.5979 18.4732 23.5355 17.5355C24.4732 16.5979 25 15.3261 25 14C25 13.3434 24.8707 12.6932 24.6194 12.0866C24.3681 11.48 23.9998 10.9288 23.5355 10.4645C23.0712 10.0002 22.52 9.63188 21.9134 9.3806C21.3068 9.12933 20.6566 9 20 9Z" fill="white"/>
<path d="M1.5 1.5H4.46456C4.2453 3.03285 3.03285 4.2453 1.5 4.46456V1.5Z" stroke="white"/>
<path d="M1.5 26.5H4.46456C4.2453 24.9672 3.03285 23.7547 1.5 23.5354V26.5Z" stroke="white"/>
<path d="M38.5 1.5H35.5354C35.7547 3.03285 36.9672 4.2453 38.5 4.46456V1.5Z" stroke="white"/>
<path d="M38.5 26.5H35.5354C35.7547 24.9672 36.9672 23.7547 38.5 23.5354V26.5Z" stroke="white"/>
</svg>
