<svg width="161" height="112" viewBox="0 0 161 112" fill="none" xmlns="http://www.w3.org/2000/svg">
<rect width="160" height="112" transform="translate(0.5)" fill="#E35669"/>
<path d="M92.3 66.78C91.78 65.18 90.28 64 88.5 64H86.5V58C86.5 57.4696 86.2893 56.9609 85.9142 56.5858C85.5391 56.2107 85.0304 56 84.5 56H72.5V52H76.5C77.0304 52 77.5391 51.7893 77.9142 51.4142C78.2893 51.0391 78.5 50.5304 78.5 50V46H82.5C83.5609 46 84.5783 45.5786 85.3284 44.8284C86.0786 44.0783 86.5 43.0609 86.5 42V41.18C88.893 42.1447 91.0165 43.6749 92.6889 45.6397C94.3612 47.6044 95.5326 49.9451 96.1027 52.4614C96.6728 54.9777 96.6247 57.5947 95.9624 60.0884C95.3001 62.5821 94.0435 64.8781 92.3 66.78ZM78.5 71.86C70.6 70.88 64.5 64.16 64.5 56C64.5 54.76 64.66 53.56 64.92 52.42L74.5 62V64C74.5 65.0609 74.9214 66.0783 75.6716 66.8284C76.4217 67.5786 77.4391 68 78.5 68M80.5 36C77.8736 36 75.2728 36.5173 72.8463 37.5224C70.4198 38.5275 68.215 40.0007 66.3579 41.8579C62.6071 45.6086 60.5 50.6957 60.5 56C60.5 61.3043 62.6071 66.3914 66.3579 70.1421C68.215 71.9993 70.4198 73.4725 72.8463 74.4776C75.2728 75.4827 77.8736 76 80.5 76C85.8043 76 90.8914 73.8929 94.6421 70.1421C98.3929 66.3914 100.5 61.3043 100.5 56C100.5 53.3736 99.9827 50.7728 98.9776 48.3463C97.9725 45.9198 96.4993 43.715 94.6421 41.8579C92.785 40.0007 90.5802 38.5275 88.1537 37.5224C85.7272 36.5173 83.1264 36 80.5 36Z" fill="white"/>
<path d="M6.5 6H18.3582C17.4812 12.1314 12.6314 16.9812 6.5 17.8582V6Z" stroke="white" stroke-width="4"/>
<path d="M6.5 106H18.3582C17.4812 99.8686 12.6314 95.0188 6.5 94.1418V106Z" stroke="white" stroke-width="4"/>
<path d="M154.5 6H142.642C143.519 12.1314 148.369 16.9812 154.5 17.8582V6Z" stroke="white" stroke-width="4"/>
<path d="M154.5 106H142.642C143.519 99.8686 148.369 95.0188 154.5 94.1418V106Z" stroke="white" stroke-width="4"/>
</svg>
